Coordinates
version=1
nRows=9
nColumns=36
inDegrees=yes

Units are S.I. units (second, meters, Newtons, ...)
If the header above contains a line with 'inDegrees', this indicates whether rotational values are in degrees (yes) or radians (no).

endheader
time	pelvis_tilt	pelvis_list	pelvis_rotation	pelvis_tx	pelvis_ty	pelvis_tz	hip_flexion_r	hip_adduction_r	hip_rotation_r	knee_angle_r	knee_angle_r_beta	ankle_angle_r	subtalar_angle_r	mtp_angle_r	hip_flexion_l	hip_adduction_l	hip_rotation_l	knee_angle_l	knee_angle_l_beta	ankle_angle_l	subtalar_angle_l	mtp_angle_l	lumbar_extension	lumbar_bending	lumbar_rotation	arm_flex_r	arm_add_r	arm_rot_r	elbow_flex_r	pro_sup_r	arm_flex_l	arm_add_l	arm_rot_l	elbow_flex_l	pro_sup_l
     -1.37000000	     -9.07374539	     -2.96662610	     -0.42745000	     -1.48460480	      1.09508921	     -0.22815534	     35.01624364	      7.15674125	     -3.79888671	     12.66629071	      0.22106848	      5.95406342	     -3.67675529	     -7.14815119	     -8.39610214	      2.76870432	     -1.66474731	     11.19909449	      0.19546107	      9.98296461	    -15.90070454	     -7.14815119	     -9.72910877	      5.75522027	     -5.00589185	      5.67575543	      3.74778121	     -8.69960193	     42.38877386	     99.13474025	     19.62088881	      1.16793123	     -3.33839521	     21.65988649	     92.89171508
     -1.36000000	     -9.51094432	     -3.26228838	     -0.84606471	     -1.47399352	      1.09395517	     -0.22925344	     35.82873180	      7.96951333	     -2.83411334	     14.56870682	      0.25427190	      4.18052936	     -5.21786714	     -7.30602028	     -8.18151706	      2.50491954	     -1.81661762	     11.31840786	      0.19754348	     10.99003705	    -13.86666294	     -7.30602028	     -9.05886889	      6.07732547	     -5.30500207	      5.09677370	      3.30869748	     -8.16280426	     42.53806648	     99.95481753	     17.90055801	      2.98647235	    -14.33118291	     23.78848028	     95.07217890
     -1.35000000	     -9.77282841	     -3.52159372	     -1.20273032	     -1.46306021	      1.09317799	     -0.23023150	     36.42464170	      8.71956629	     -2.04226652	     16.38538063	      0.28597884	      2.24366028	     -6.60468674	     -7.32241843	     -8.14241441	      2.23837716	     -2.22676234	     11.49143593	      0.20056339	     11.94959840	    -11.71365488	     -7.32241843	     -8.53618609	      6.33889902	     -4.84983353	      3.98105558	      2.82041528	     -8.35470686	     43.62959498	    100.01302929	     17.01590775	      4.30601136	    -19.10038592	     24.37625640	     93.95508983
     -1.34000000	    -10.19953716	     -3.64849777	     -1.40229933	     -1.45164378	      1.09248170	     -0.23145571	     37.17296174	      9.18454699	     -1.52263956	     18.09193294	      0.31576380	      0.27663451	     -7.88001650	     -7.32737621	     -7.81159222	      2.09370927	     -2.53375088	     11.86919485	      0.20715653	     12.19989932	    -10.60275248	     -7.32737621	     -7.60865342	      6.53204649	     -4.67858659	      2.95478913	      2.20661551	     -8.04929284	     44.39303391	    100.21722442	     15.81224599	      4.92528714	    -20.74487881	     24.74874960	     93.65219524
     -1.33000000	    -10.15461566	     -3.90087889	     -1.39871207	     -1.43967713	      1.09313938	     -0.23278997	     37.25406602	      9.60472252	     -1.26353203	     19.42831097	      0.33908799	     -1.65310683	     -8.75650381	     -7.33438575	     -7.94061664	      1.74815292	     -3.14094926	     12.36659441	      0.21583779	     12.02689209	     -9.53914883	     -7.33438575	     -7.38030176	      6.90288930	     -4.67904251	      2.10684219	      1.67341777	     -7.67093128	     45.46316687	    100.75110032	     14.51022600	      5.50016429	    -22.87692042	     25.62108140	     93.38955815
     -1.32000000	     -9.89205925	     -4.17264567	     -1.19446778	     -1.42734437	      1.09477564	     -0.23444395	     37.00166238	      9.78546024	     -1.57108212	     20.54917177	      0.35865071	     -2.96912202	     -8.72479779	     -7.33558375	     -8.18073875	      1.33914534	     -3.80029615	     13.07881812	      0.22826844	     11.00374079	     -9.30544058	     -7.33558375	     -7.18103014	      7.35231481	     -4.77225974	      1.65906062	      1.21168917	     -7.66270717	     45.65065110	    100.89874484	     13.39393965	      5.60549813	    -23.05914837	     25.54259102	     93.42881354
     -1.31000000	     -9.71305101	     -4.42276741	     -0.89110939	     -1.41477700	      1.09667355	     -0.23587220	     36.69704273	      9.94998080	     -1.43663795	     21.36424341	      0.37287639	     -4.83212974	     -9.86976213	     -7.34287170	     -8.14688954	      0.86720616	     -4.53548481	     14.16219771	      0.24717698	      9.53682818	     -9.32389448	     -7.34287170	     -7.03651692	      7.82427671	     -5.08534603	      1.01494259	      0.55456697	     -7.02294186	     46.68635622	    102.19297447	     11.71670142	      5.56220428	    -22.97938582	     26.72089980	     94.05568946
     -1.30000000	     -9.36652095	     -4.70614736	     -0.41502114	     -1.40231621	      1.09915691	     -0.23732769	     36.13420654	      9.98933745	     -1.58065041	     22.06597349	      0.38512389	     -6.19069752	    -10.38845006	     -7.35233520	     -8.09616149	      0.28159466	     -5.17090275	     15.59482759	      0.27218109	      7.33204884	     -9.85721609	     -7.35233520	     -7.01218476	      8.37658867	     -5.49836859	      0.77479611	      0.04226855	     -6.88330849	     46.83434623	    103.90547287	     10.29264218	      5.22001422	    -21.79592745	     27.29202349	     95.23718526
     -1.29000000	     -8.97095074	     -4.99758791	      0.18795205	     -1.39012100	      1.10181947	     -0.23855256	     35.44728773	      9.98445926	     -1.70125917	     22.66819194	      0.39563458	     -7.35318539	    -10.87253240	     -7.35939413	     -7.82383422	     -0.42959464	     -5.76624837	     17.54136501	      0.30615457	      4.78233350	    -10.41510513	     -7.35939413	     -7.03875137	      8.93871062	     -5.82732398	      0.50273763	     -0.37841949	     -7.17296692	     46.89797263	    105.05790915	      9.16923331	      4.86918645	    -20.53419075	     27.51563042	     96.17695232
